<svg width="36" height="36" viewBox="0 0 36 36" fill="none" xmlns="http://www.w3.org/2000/svg">
<g clip-path="url(#clip0_2_1708)">
<path d="M27 14.625H24.75C24.749 13.7302 24.3931 12.8723 23.7604 12.2396C23.1277 11.6069 22.2698 11.251 21.375 11.25V9C22.8663 9.0017 24.2961 9.59487 25.3506 10.6494C26.4051 11.7039 26.9983 13.1337 27 14.625Z" fill="#5EC79C"/>
<path d="M31.5 14.625H29.25C29.2477 12.5371 28.4172 10.5354 26.9409 9.0591C25.4646 7.58275 23.4629 6.75232 21.375 6.75V4.5C24.0594 4.50298 26.633 5.57067 28.5312 7.46883C30.4293 9.36699 31.497 11.9406 31.5 14.625Z" fill="#5EC79C"/>
<path d="M22.8753 24.1676L25.3953 21.6476C25.7326 21.3102 26.1614 21.0792 26.6287 20.9832C27.096 20.8872 27.5812 20.9305 28.0242 21.1076L31.0933 22.3353C31.5457 22.5163 31.9335 22.8287 32.2065 23.2323C32.4796 23.6358 32.6255 24.1119 32.6253 24.5991V30.1806C32.6261 30.5123 32.5592 30.8407 32.4286 31.1457C32.298 31.4506 32.1066 31.7257 31.866 31.9541C31.6254 32.1825 31.3408 32.3594 31.0295 32.4739C30.7182 32.5885 30.3867 32.6383 30.0555 32.6203C8.54336 31.2811 4.19895 13.0628 3.39176 6.0839C3.3527 5.74275 3.38633 5.39719 3.49042 5.06996C3.5945 4.74274 3.7667 4.44126 3.99567 4.18537C4.22465 3.92948 4.50521 3.72497 4.8189 3.5853C5.1326 3.44562 5.47231 3.37396 5.81569 3.37501H11.2976C11.7847 3.375 12.2607 3.52097 12.6641 3.79409C13.0675 4.06721 13.3798 4.45494 13.5608 4.90726L14.7885 7.97626C14.9656 8.4192 15.0088 8.90438 14.9128 9.37166C14.8168 9.83895 14.5858 10.2678 14.2485 10.605L11.7285 13.125C11.7285 13.125 13.1254 22.9489 22.8753 24.1676Z" fill="#5EC79C"/>
</g>
<defs>
<clipPath id="clip0_2_1708">
<rect width="36" height="36" fill="white"/>
</clipPath>
</defs>
</svg>
