<svg width="36" height="36" viewBox="0 0 36 36" fill="none" xmlns="http://www.w3.org/2000/svg">
<path d="M18 24.75C16.8377 24.75 15.6755 24.3688 14.6841 23.5962L0 12.1781V28.125C0 29.9883 1.51102 31.5 3.375 31.5H32.625C34.489 31.5 36 29.989 36 28.125V12.1781L21.3188 23.6039C20.3273 24.3703 19.1602 24.75 18 24.75ZM1.14539 10.2164L16.0657 21.825C17.2041 22.7109 18.7987 22.7109 19.9371 21.825L34.8574 10.2164C35.5148 9.65391 36 8.78906 36 7.875C36 6.01102 34.4883 4.5 32.625 4.5H3.375C1.51102 4.5 0 6.01102 0 7.875C0 8.78906 0.422578 9.65391 1.14539 10.2164Z" fill="#5EC79C"/>
</svg>
