<svg width="36" height="36" viewBox="0 0 36 36" fill="none" xmlns="http://www.w3.org/2000/svg">
<g clip-path="url(#clip0_2_3672)">
<path d="M29.7 0H6.3C2.82061 0 0 2.82061 0 6.3V29.7C0 33.1794 2.82061 36 6.3 36H29.7C33.1794 36 36 33.1794 36 29.7V6.3C36 2.82061 33.1794 0 29.7 0Z" fill="#F7C35F"/>
<path d="M30.6 16.6499H24.975V12.3749C24.975 11.3287 26.1788 11.2499 26.55 11.2499H30.375V5.3999H26.55C22.3144 5.3999 19.125 8.39803 19.125 12.3749V16.6499H14.4V22.4999H19.125V35.9999H24.975V22.4999H29.7L30.6 16.6499Z" fill="#255946"/>
</g>
<defs>
<clipPath id="clip0_2_3672">
<rect width="36" height="36" fill="white"/>
</clipPath>
</defs>
</svg>
