<svg width="22" height="23" viewBox="0 0 22 23" fill="none" xmlns="http://www.w3.org/2000/svg">
<g clip-path="url(#clip0_2_3707)">
<path d="M10.9999 2.22217C14.633 2.22217 17.5786 5.16785 17.5786 8.80094C17.5786 13.6804 10.9999 21.1214 10.9999 21.1214C10.9999 21.1214 4.42111 13.6804 4.42111 8.80094C4.42111 5.16785 7.36679 2.22217 10.9999 2.22217ZM10.9999 11.5767C12.5331 11.5767 13.7757 10.3342 13.7757 8.8009C13.7757 7.26764 12.5331 6.02512 10.9999 6.02512C9.46667 6.02512 8.2241 7.26764 8.2241 8.8009C8.2241 10.3342 9.46667 11.5767 10.9999 11.5767Z" fill="#F7C35F"/>
</g>
<defs>
<clipPath id="clip0_2_3707">
<rect width="22" height="22" fill="white" transform="matrix(-1 0 0 1 22 0.671875)"/>
</clipPath>
</defs>
</svg>
