<svg width="20" height="21" viewBox="0 0 20 21" fill="none" xmlns="http://www.w3.org/2000/svg">
<path d="M10 14.4219C10.6457 14.4219 11.2914 14.2101 11.8422 13.7809L20 7.4375V16.2969C20 17.332 19.1605 18.1719 18.125 18.1719H1.875C0.839453 18.1719 0 17.3324 0 16.2969V7.4375L8.15625 13.7852C8.70703 14.2109 9.35547 14.4219 10 14.4219ZM19.3637 6.34766L11.0746 12.7969C10.4422 13.2891 9.55625 13.2891 8.92383 12.7969L0.634766 6.34766C0.269531 6.03516 0 5.55469 0 5.04688C0 4.01133 0.839844 3.17188 1.875 3.17188H18.125C19.1605 3.17188 20 4.01133 20 5.04688C20 5.55469 19.7652 6.03516 19.3637 6.34766Z" fill="#F7C35F"/>
</svg>
