<svg width="20" height="21" viewBox="0 0 20 21" fill="none" xmlns="http://www.w3.org/2000/svg">
<g clip-path="url(#clip0_2_3718)">
<path d="M5 8.79688H6.25C6.25055 8.29976 6.44827 7.82317 6.79978 7.47165C7.15129 7.12014 7.62789 6.92242 8.125 6.92188V5.67188C7.29649 5.67282 6.50218 6.00236 5.91633 6.58821C5.33049 7.17405 5.00094 7.96836 5 8.79688Z" fill="#F7C35F"/>
<path d="M2.5 8.79688H3.75C3.75129 7.63695 4.21264 6.5249 5.03283 5.70471C5.85302 4.88452 6.96507 4.42317 8.125 4.42188V3.17188C6.63366 3.17353 5.20388 3.76669 4.14935 4.82123C3.09482 5.87576 2.50165 7.30554 2.5 8.79688Z" fill="#F7C35F"/>
<path d="M7.2918 14.0983L5.8918 12.6983C5.70442 12.5109 5.46617 12.3825 5.20655 12.3292C4.94694 12.2759 4.67739 12.2999 4.4313 12.3983L2.72624 13.0804C2.47491 13.1809 2.25949 13.3545 2.10777 13.5787C1.95606 13.8029 1.87502 14.0674 1.87511 14.3381V17.4389C1.87469 17.6232 1.91188 17.8056 1.98442 17.975C2.05695 18.1444 2.1633 18.2973 2.29696 18.4241C2.43061 18.551 2.58875 18.6493 2.76171 18.7129C2.93466 18.7766 3.11878 18.8043 3.3028 18.7943C15.254 18.0503 17.6675 7.92901 18.116 4.05182C18.1377 3.86229 18.119 3.67031 18.0612 3.48852C18.0034 3.30673 17.9077 3.13924 17.7805 2.99708C17.6533 2.85492 17.4974 2.7413 17.3231 2.66371C17.1489 2.58611 16.9601 2.5463 16.7694 2.54688H13.7239C13.4532 2.54688 13.1888 2.62797 12.9647 2.7797C12.7406 2.93143 12.5671 3.14684 12.4665 3.39813L11.7845 5.10313C11.6861 5.34921 11.6621 5.61875 11.7154 5.87836C11.7687 6.13796 11.8971 6.3762 12.0845 6.56357L13.4845 7.96357C13.4845 7.96357 12.7084 13.4213 7.2918 14.0983Z" fill="#F7C35F"/>
</g>
<defs>
<clipPath id="clip0_2_3718">
<rect width="20" height="20" fill="white" transform="matrix(-1 0 0 1 20 0.671875)"/>
</clipPath>
</defs>
</svg>
