<svg width="36" height="36" viewBox="0 0 36 36" fill="none" xmlns="http://www.w3.org/2000/svg">
<path d="M17.9047 10.6035C13.4603 10.6035 9.77771 14.2226 9.77771 18.7305C9.77771 23.2384 13.3968 26.8575 17.9047 26.8575C22.4126 26.8575 26.0317 23.1749 26.0317 18.7305C26.0317 14.2861 22.3491 10.6035 17.9047 10.6035ZM17.9047 23.9368C15.0476 23.9368 12.6983 21.5876 12.6983 18.7305C12.6983 15.8734 15.0476 13.5241 17.9047 13.5241C20.7618 13.5241 23.111 15.8734 23.111 18.7305C23.111 21.5876 20.7618 23.9368 17.9047 23.9368Z" fill="#F7C35F"/>
<path d="M26.3492 12.2543C27.3661 12.2543 28.1905 11.43 28.1905 10.413C28.1905 9.39614 27.3661 8.57178 26.3492 8.57178C25.3323 8.57178 24.5079 9.39614 24.5079 10.413C24.5079 11.43 25.3323 12.2543 26.3492 12.2543Z" fill="#F7C35F"/>
<path d="M31.1111 5.65103C29.4603 3.93674 27.1111 3.04785 24.4444 3.04785H11.365C5.84123 3.04785 2.15869 6.73039 2.15869 12.2542V25.2701C2.15869 28.0002 3.04758 30.3494 4.82536 32.0637C6.53964 33.7145 8.82536 34.5399 11.4285 34.5399H24.3809C27.1111 34.5399 29.3968 33.651 31.0476 32.0637C32.7619 30.4129 33.6508 28.0637 33.6508 25.3336V12.2542C33.6508 9.58753 32.7619 7.30182 31.1111 5.65103ZM30.8571 25.3336C30.8571 27.3018 30.1587 28.8891 29.0158 29.9685C27.873 31.0479 26.2857 31.6193 24.3809 31.6193H11.4285C9.52377 31.6193 7.93647 31.0479 6.79361 29.9685C5.65075 28.8256 5.07933 27.2383 5.07933 25.2701V12.2542C5.07933 10.3494 5.65075 8.76214 6.79361 7.61928C7.87298 6.53992 9.52377 5.96849 11.4285 5.96849H24.5079C26.4127 5.96849 28 6.53992 29.1428 7.68277C30.2222 8.82563 30.8571 10.4129 30.8571 12.2542V25.3336Z" fill="#F7C35F"/>
</svg>
