<svg width="32" height="32" viewBox="0 0 32 32" fill="none" xmlns="http://www.w3.org/2000/svg">
<path d="M11.0571 10.2432C11.1342 10.3197 11.1954 10.4106 11.2371 10.5108C11.2789 10.611 11.3004 10.7185 11.3004 10.8271C11.3004 10.9356 11.2789 11.0431 11.2371 11.1433C11.1954 11.2435 11.1342 11.3345 11.0571 11.4109L7.27445 15.1936H26.6318C26.8499 15.1936 27.059 15.2802 27.2133 15.4344C27.3675 15.5886 27.4541 15.7978 27.4541 16.0159C27.4541 16.234 27.3675 16.4432 27.2133 16.5974C27.059 16.7516 26.8499 16.8382 26.6318 16.8382H7.2909L11.0571 20.5962C11.2103 20.7503 11.2962 20.9587 11.2962 21.1759C11.2962 21.3932 11.2103 21.6016 11.0571 21.7557C10.903 21.9088 10.6946 21.9948 10.4774 21.9948C10.2601 21.9948 10.0517 21.9088 9.89764 21.7557L4.66771 16.5257C4.59732 16.4582 4.54131 16.3771 4.50305 16.2874C4.46479 16.1977 4.44506 16.1011 4.44506 16.0036C4.44506 15.906 4.46479 15.8095 4.50305 15.7197C4.54131 15.63 4.59732 15.5489 4.66771 15.4814L9.88942 10.2432C9.96587 10.1662 10.0568 10.105 10.157 10.0632C10.2572 10.0215 10.3647 10 10.4733 10C10.5818 10 10.6893 10.0215 10.7895 10.0632C10.8897 10.105 10.9807 10.1662 11.0571 10.2432Z" fill="white"/>
</svg>
