<svg width="36" height="36" viewBox="0 0 36 36" fill="none" xmlns="http://www.w3.org/2000/svg">
<path d="M17.9999 31.3309L18.5062 30.7121C18.8437 30.2621 27.45 20.1934 27.45 14.1746C27.45 8.94337 23.1749 4.72461 17.9999 4.72461C12.8249 4.72461 8.54995 8.99962 8.54995 14.1746C8.54995 20.1934 17.1562 30.3184 17.4937 30.7121L17.9999 31.3309ZM17.9999 6.01837C22.4999 6.01837 26.0999 9.67462 26.0999 14.1184C26.0999 18.8434 19.8562 26.8871 17.9999 29.1934C16.1437 26.8871 9.89995 18.8996 9.89995 14.1184C9.89995 9.67462 13.4999 6.01837 17.9999 6.01837Z" fill="white"/>
<path d="M18 17.7742C19.9687 17.7742 21.6 16.143 21.6 14.1742C21.6 12.2055 19.9687 10.5742 18 10.5742C16.0312 10.5742 14.4 12.2055 14.4 14.1742C14.4 16.143 16.0312 17.7742 18 17.7742ZM18 11.9242C19.2375 11.9242 20.25 12.9367 20.25 14.1742C20.25 15.4117 19.2375 16.4242 18 16.4242C16.7625 16.4242 15.75 15.4117 15.75 14.1742C15.75 12.9367 16.7625 11.9242 18 11.9242Z" fill="white"/>
</svg>
