<svg width="60" height="60" viewBox="0 0 60 60" fill="none" xmlns="http://www.w3.org/2000/svg">
<mask id="mask0_2_3290" style="mask-type:luminance" maskUnits="userSpaceOnUse" x="0" y="0" width="60" height="60">
<path d="M59.342 0H0V59.342H59.342V0Z" fill="white"/>
</mask>
<g mask="url(#mask0_2_3290)">
<path d="M5.80854 26.0223C5.56753 25.1231 5.56749 24.1762 5.80845 23.277C6.0494 22.3777 6.52283 21.5577 7.18118 20.8994L20.8995 7.18113C21.5578 6.52278 22.3778 6.04935 23.277 5.80839C24.1763 5.56744 25.1231 5.56748 26.0224 5.80849L38.8593 9.24813C38.9929 7.48952 39.6052 5.80096 40.6298 4.36536L25.1687 0.22299C24.0589 -0.0743363 22.8905 -0.0743302 21.7807 0.22301C20.671 0.520351 19.6591 1.10455 18.8466 1.9169L1.91726 18.8463C1.10491 19.6587 0.520715 20.6706 0.223376 21.7804C-0.0739639 22.8901 -0.0739703 24.0586 0.223356 25.1683L4.52508 41.2224C5.93132 40.1485 7.60555 39.4815 9.36503 39.2945L5.80854 26.0223Z" fill="#F5B062"/>
<path d="M49.8592 19.6039L53.5345 33.3196C53.7756 34.2191 53.7753 35.1658 53.5345 36.0649C53.2934 36.9643 52.8198 37.7842 52.1615 38.4425L38.4432 52.1612C37.7849 52.8195 36.965 53.2927 36.0656 53.5338C35.1665 53.7746 34.2194 53.7746 33.3203 53.5338L20.0482 49.9773C19.8612 51.7369 19.1943 53.4112 18.1202 54.8173L34.1743 59.119C35.284 59.4164 36.4525 59.4164 37.5621 59.119C38.6721 58.8215 39.6839 58.2376 40.4964 57.4251L57.4258 40.4957C58.2383 39.6832 58.8222 38.6714 59.1197 37.5615C59.4171 36.4518 59.4171 35.2833 59.1197 34.1737L54.6557 17.5186C53.2792 18.6421 51.6194 19.3637 49.8592 19.6039Z" fill="#F5B062"/>
<path d="M4.91085 43.4364C3.82359 44.5235 3.08315 45.909 2.78318 47.4169C2.4832 48.925 2.63715 50.4882 3.22557 51.9088C3.81396 53.3291 4.81041 54.5434 6.08885 55.3977C7.36733 56.2518 8.87037 56.7079 10.408 56.7079C11.9456 56.7079 13.4486 56.2518 14.7271 55.3977C16.0056 54.5434 17.002 53.3291 17.5904 51.9088C18.1788 50.4882 18.3328 48.925 18.0328 47.4169C17.7328 45.909 16.9924 44.5235 15.9051 43.4364C14.4461 41.9807 12.4691 41.1631 10.408 41.1631C8.34688 41.1631 6.36992 41.9807 4.91085 43.4364Z" fill="#5EC79C"/>
<path d="M43.035 4.50969C41.9479 5.59692 41.2072 6.98214 40.9075 8.49021C40.6075 9.99824 40.7613 11.5614 41.3498 12.9819C41.9383 14.4025 42.9346 15.6167 44.2129 16.4709C45.4915 17.3252 46.9945 17.7811 48.532 17.7811C50.0698 17.7811 51.5728 17.3252 52.8514 16.4709C54.1297 15.6167 55.126 14.4025 55.7145 12.9819C56.303 11.5614 56.4568 9.99824 56.1568 8.49021C55.8571 6.98214 55.1164 5.59692 54.0293 4.50969C52.5704 3.05391 50.5932 2.23633 48.532 2.23633C46.4711 2.23633 44.4939 3.05391 43.035 4.50969Z" fill="#5EC79C"/>
<path d="M34.2344 50.2784C33.9222 50.2784 33.6115 50.2375 33.3099 50.1567L21.1609 46.9012C20.7558 44.738 19.7063 42.7476 18.1501 41.1915C16.5939 39.6353 14.6036 38.5856 12.4403 38.1806L9.18514 26.0326C9.02377 25.4267 9.02422 24.789 9.18653 24.1833C9.34884 23.5776 9.66727 23.0251 10.11 22.5811L22.5796 10.1111C23.0232 9.66754 23.5757 9.34856 24.1816 9.18618C24.7876 9.02384 25.4256 9.02388 26.0315 9.18628L37.8399 12.3504C38.3082 14.5002 39.415 16.4585 41.0152 17.9687C42.6154 19.4788 44.6345 20.4705 46.8077 20.8138L50.1556 33.311C50.3169 33.9172 50.3165 34.5549 50.154 35.1604C49.9917 35.7663 49.6734 36.3187 49.2304 36.7629L36.7608 49.2325C36.4299 49.5651 36.0359 49.829 35.6022 50.0083C35.1686 50.188 34.7038 50.2797 34.2344 50.2784Z" fill="#5EC79C"/>
</g>
</svg>
