<svg width="36" height="36" viewBox="0 0 36 36" fill="none" xmlns="http://www.w3.org/2000/svg">
<path d="M31.2968 21.405L26.6805 18.4881L31.264 15.0982C31.4892 14.932 31.5367 14.6148 31.3702 14.3899C31.204 14.165 30.8868 14.1175 30.6618 14.284L24.1622 19.0908L24.1594 19.0886L24.1567 19.0908L17.657 14.284C17.4324 14.1175 17.1152 14.165 16.9487 14.3899C16.7824 14.6148 16.83 14.932 17.0549 15.0982L21.6384 18.4881L17.0224 21.405C16.7858 21.5545 16.7153 21.8674 16.8649 22.104C16.9612 22.2563 17.1253 22.3401 17.2935 22.3401C17.3863 22.3401 17.4796 22.3147 17.5638 22.2615L22.5125 19.1344L23.8585 20.1301C23.9478 20.1962 24.0537 20.2295 24.1596 20.2295C24.2655 20.2295 24.3714 20.1962 24.4609 20.1301L25.8066 19.1344L30.7554 22.2615C30.8395 22.3147 30.9331 22.3401 31.0257 22.3401C31.1939 22.3401 31.3582 22.2563 31.4543 22.104C31.6035 21.8674 31.5332 21.5545 31.2968 21.405Z" fill="white"/>
<path d="M30.8294 11.2725L17.4893 11.2725C15.5306 11.2725 13.937 13.0088 13.937 15.1428V20.8561C13.937 22.9904 15.5306 24.7268 17.4893 24.7268H30.8294C32.7885 24.7268 34.382 22.9905 34.382 20.8561V15.1428C34.382 13.0088 32.7884 11.2725 30.8294 11.2725ZM33.2192 20.8561C33.2192 22.2939 32.1494 23.4597 30.8294 23.4597H17.4893C16.1695 23.4597 15.0998 22.2939 15.0998 20.8561V15.1428C15.0998 13.7051 16.1696 12.5396 17.4893 12.5396H30.8294C32.1495 12.5396 33.2192 13.7051 33.2192 15.1428V20.8561H33.2192Z" fill="white"/>
<path d="M11.3781 14.3711H2.19195C1.87505 14.3711 1.61792 14.6282 1.61792 14.9451C1.61792 15.2623 1.87505 15.5194 2.19195 15.5194H11.3781C11.6948 15.5194 11.9519 15.2623 11.9519 14.9451C11.952 14.6282 11.6948 14.3711 11.3781 14.3711Z" fill="white"/>
<path d="M11.5018 17.2822H4.29706C4.04865 17.2822 3.84692 17.5391 3.84692 17.8563C3.84692 18.1732 4.04865 18.4306 4.29706 18.4306H11.5018C11.7506 18.4306 11.952 18.1732 11.952 17.8563C11.952 17.5391 11.7505 17.2822 11.5018 17.2822Z" fill="white"/>
<path d="M11.599 20.1934H5.94818C5.753 20.1934 5.59521 20.4505 5.59521 20.7674C5.59521 21.0846 5.753 21.3417 5.94818 21.3417H11.599C11.7938 21.3417 11.952 21.0846 11.952 20.7674C11.952 20.4505 11.7939 20.1934 11.599 20.1934Z" fill="white"/>
</svg>
