<svg width="20" height="20" viewBox="0 0 20 20" fill="none" xmlns="http://www.w3.org/2000/svg">
<path d="M10.8439 15.8126C9.00011 13.9688 7.18761 12.1563 5.34386 10.3126C5.25011 10.2188 5.15636 10.1251 5.06261 10.0313C6.75011 8.34383 8.40636 6.68758 10.0939 5.00008C10.3751 4.71883 10.6251 4.46883 10.9064 4.18758C11.5314 3.56258 10.5626 2.53133 9.90636 3.18758C8.06261 5.03133 6.21886 6.87508 4.37511 8.71883C4.09386 9.00008 3.84386 9.25008 3.56261 9.53133C3.28136 9.81258 3.28136 10.2813 3.56261 10.5313C5.40636 12.3751 7.21886 14.1876 9.06261 16.0313C9.31261 16.2813 9.59386 16.5626 9.84386 16.8126C10.4689 17.4688 11.4689 16.4376 10.8439 15.8126Z" fill="black"/>
<path d="M9.12511 8.75008C8.84386 9.03133 8.59386 9.28133 8.31261 9.56258C8.03136 9.84383 8.03136 10.3126 8.31261 10.5626C10.1564 12.4063 11.9689 14.2188 13.8126 16.0626C14.0626 16.3126 14.3439 16.5938 14.5939 16.8438C15.2189 17.4688 16.2501 16.5001 15.5939 15.8438C13.7814 13.9688 11.9376 12.1563 10.1251 10.3126C10.0314 10.2188 9.93761 10.1251 9.84386 10.0313C11.5314 8.34383 13.1876 6.68758 14.8751 5.00008C15.1564 4.71883 15.4064 4.46883 15.6876 4.18758C16.3126 3.56258 15.3439 2.53133 14.6876 3.18758C12.8126 5.03133 11.0001 6.90633 9.12511 8.75008Z" fill="black"/>
</svg>
