<svg width="18" height="18" viewBox="0 0 18 18" fill="none" xmlns="http://www.w3.org/2000/svg">
<path d="M9.71518 8.61807L1.68768 0.598692C1.53224 0.465583 1.33231 0.396028 1.12782 0.403926C0.923333 0.411825 0.729358 0.496595 0.584656 0.641297C0.439954 0.785998 0.355184 0.979974 0.347286 1.18446C0.339387 1.38895 0.408942 1.58888 0.542051 1.74432L7.9033 9.10557L0.753301 16.2556C0.601972 16.4078 0.517032 16.6137 0.517032 16.8284C0.517032 17.043 0.601972 17.249 0.753301 17.4012C0.828833 17.4773 0.918697 17.5378 1.01771 17.579C1.11672 17.6203 1.22292 17.6415 1.33018 17.6415C1.43744 17.6415 1.54363 17.6203 1.64264 17.579C1.74166 17.5378 1.83152 17.4773 1.90705 17.4012L9.71518 9.59307C9.84418 9.46362 9.91661 9.28832 9.91661 9.10557C9.91661 8.92282 9.84418 8.74751 9.71518 8.61807Z" fill="#5EC79C"/>
<path d="M17.4994 8.61807L9.47186 0.598692C9.31642 0.465583 9.11649 0.396028 8.912 0.403926C8.70751 0.411825 8.51354 0.496595 8.36884 0.641297C8.22413 0.785998 8.13936 0.979974 8.13147 1.18446C8.12357 1.38895 8.19312 1.58888 8.32623 1.74432L15.6875 9.10557L8.53748 16.2556C8.38615 16.4078 8.30121 16.6137 8.30121 16.8284C8.30121 17.043 8.38615 17.249 8.53748 17.4012C8.68971 17.5525 8.89564 17.6375 9.11029 17.6375C9.32494 17.6375 9.53087 17.5525 9.68311 17.4012L17.4994 9.59307C17.6284 9.46362 17.7008 9.28832 17.7008 9.10557C17.7008 8.92282 17.6284 8.74751 17.4994 8.61807Z" fill="#5EC79C"/>
</svg>
