<svg width="26" height="26" viewBox="0 0 26 26" fill="none" xmlns="http://www.w3.org/2000/svg">
<path d="M8.29106 22.8546C9.08543 22.8487 9.87633 22.749 10.6473 22.5575C13.3098 21.9151 16.0514 20.2856 18.3661 17.9689C20.6807 15.6523 22.3123 12.9101 22.9547 10.2502C23.6311 7.45212 23.1486 5.05829 21.5978 3.50743L21.155 3.06462C20.7532 2.66366 20.2088 2.43848 19.6412 2.43848C19.0736 2.43848 18.5291 2.66366 18.1274 3.06462L15.5827 5.60876C15.1815 6.01039 14.9562 6.55486 14.9562 7.12255C14.9562 7.69024 15.1815 8.23471 15.5827 8.63634L17.0859 10.139C16.3653 11.4034 15.3852 12.6689 14.2269 13.8272C13.0686 14.9855 11.8021 15.9661 10.5381 16.6867L9.03551 15.1836C8.83674 14.9847 8.60075 14.827 8.34101 14.7194C8.08127 14.6118 7.80287 14.5564 7.52172 14.5564C7.24057 14.5564 6.96217 14.6118 6.70243 14.7194C6.44269 14.827 6.2067 14.9847 6.00793 15.1836L3.46379 17.7277C3.06249 18.1292 2.83706 18.6736 2.83706 19.2412C2.83706 19.8089 3.06249 20.3533 3.46379 20.7548L3.90711 21.1976C5.00043 22.2929 6.51371 22.8546 8.29106 22.8546ZM19.6412 3.96091C19.7223 3.96051 19.8026 3.97629 19.8775 4.00733C19.9524 4.03837 20.0204 4.08405 20.0774 4.14169L20.5207 4.5845C21.6821 5.74587 22.0213 7.63138 21.4759 9.89064C20.8985 12.284 19.4122 14.7707 17.291 16.8913C15.1699 19.012 12.6836 20.4968 10.2898 21.0762C8.03004 21.6216 6.14555 21.2824 4.98418 20.121L4.54137 19.6782C4.42567 19.5624 4.36068 19.4054 4.36068 19.2417C4.36068 19.0781 4.42567 18.9211 4.54137 18.8053L7.085 16.2611C7.20079 16.1454 7.35778 16.0805 7.52147 16.0805C7.68515 16.0805 7.84214 16.1454 7.95793 16.2611L9.86274 18.1659C9.97703 18.2803 10.1247 18.3553 10.2845 18.3802C10.4443 18.405 10.6078 18.3783 10.7514 18.3041C12.3129 17.4967 13.8872 16.3211 15.3039 14.9043C16.7207 13.4875 17.8938 11.9143 18.7032 10.3527C18.7776 10.2092 18.8043 10.0457 18.7796 9.88593C18.7548 9.72617 18.6799 9.57843 18.5656 9.46407L16.6603 7.55927C16.5446 7.44348 16.4796 7.28649 16.4796 7.1228C16.4796 6.95912 16.5446 6.80213 16.6603 6.68634L19.2045 4.14169C19.2617 4.08415 19.3297 4.03854 19.4047 4.00751C19.4797 3.97648 19.56 3.96064 19.6412 3.96091Z" fill="white"/>
<path d="M7.47754 13.6968C7.67956 13.6968 7.87331 13.6165 8.01616 13.4737C8.15901 13.3308 8.23926 13.1371 8.23926 12.9351C8.24074 11.5988 8.7722 10.3176 9.71705 9.37268C10.6619 8.42773 11.943 7.89614 13.2793 7.89453C13.4813 7.89453 13.6751 7.81428 13.8179 7.67143C13.9608 7.52858 14.041 7.33483 14.041 7.13281C14.041 6.93079 13.9608 6.73705 13.8179 6.5942C13.6751 6.45135 13.4813 6.37109 13.2793 6.37109C9.66012 6.37109 6.71582 9.31641 6.71582 12.9351C6.71582 13.1371 6.79607 13.3308 6.93892 13.4737C7.08177 13.6165 7.27552 13.6968 7.47754 13.6968Z" fill="white"/>
<path d="M4.25801 13.6976C4.46003 13.6976 4.65378 13.6173 4.79663 13.4745C4.93948 13.3316 5.01973 13.1379 5.01973 12.9359C5.01973 8.38129 8.72676 4.67578 13.2793 4.67578C13.4813 4.67578 13.6751 4.59553 13.8179 4.45268C13.9608 4.30983 14.041 4.11608 14.041 3.91406C14.041 3.71204 13.9608 3.5183 13.8179 3.37545C13.6751 3.2326 13.4813 3.15234 13.2793 3.15234C7.88481 3.15234 3.49629 7.54137 3.49629 12.9359C3.49629 13.1379 3.57654 13.3316 3.71939 13.4745C3.86224 13.6173 4.05599 13.6976 4.25801 13.6976Z" fill="white"/>
</svg>
