<svg width="36" height="36" viewBox="0 0 36 36" fill="none" xmlns="http://www.w3.org/2000/svg">
<g clip-path="url(#clip0_2_3680)">
<path d="M36 27.9211C36 32.3859 32.3789 36 27.9211 36H8.07891C3.62109 36 0 32.3789 0 27.9211V8.07891C0 3.62109 3.62109 0 8.07891 0H27.9211C32.3789 0 36 3.62109 36 8.07891V27.9211Z" fill="#F7C35F"/>
<path d="M26.9367 9.42904L8.17735 16.7345C7.57266 16.9736 7.60781 17.8454 8.2336 18.0283L13.0008 19.4345L14.7797 25.0806C14.9625 25.6712 15.7148 25.847 16.1438 25.404L18.6117 22.8868L23.4492 26.4376C24.0398 26.8736 24.8836 26.5501 25.0313 25.8329L28.2305 10.5189C28.3922 9.77357 27.6539 9.14779 26.9367 9.42904ZM24.5883 12.8251L15.8766 20.5314C15.7922 20.6087 15.7359 20.7142 15.7219 20.8267L15.3844 23.8079C15.3703 23.9064 15.2367 23.9204 15.2086 23.822L13.8305 19.3712C13.7672 19.1673 13.8516 18.9493 14.0344 18.8368L24.3211 12.4525C24.5531 12.3189 24.7992 12.6423 24.5883 12.8251Z" fill="#255946"/>
</g>
<defs>
<clipPath id="clip0_2_3680">
<rect width="36" height="36" fill="white"/>
</clipPath>
</defs>
</svg>
