<svg width="64" height="64" viewBox="0 0 64 64" fill="none" xmlns="http://www.w3.org/2000/svg">
<path d="M52.1379 11.6055C46.76 6.215 39.5984 3.25 31.9871 3.25C16.2774 3.25 3.49387 16.0336 3.49387 31.7431C3.49387 36.7614 4.80312 41.6644 7.29312 45.9897L3.25024 60.7497L18.3567 56.7837C22.5152 59.0554 27.1997 60.2492 31.9744 60.2492H31.9872C47.6842 60.2492 60.7499 47.4656 60.7499 31.7561C60.7497 24.145 57.5156 16.9961 52.1379 11.6055Z" fill="white"/>
<path d="M31.9871 55.4493C27.726 55.4493 23.5546 54.3071 19.9224 52.1508L19.0625 51.6375L10.1038 53.9861L12.4911 45.2456L11.9264 44.3472C9.55201 40.5737 8.30688 36.2229 8.30688 31.7435C8.30688 18.6905 18.9341 8.06348 32 8.06348C38.3274 8.06348 44.2698 10.5277 48.7365 15.007C53.2029 19.4864 55.9496 25.429 55.9369 31.7565C55.9369 44.8225 45.0399 55.4493 31.9871 55.4493Z" fill="#60BE74"/>
<path d="M44.976 37.7115C44.2701 37.3525 40.7663 35.6321 40.1117 35.4015C39.4571 35.1575 38.9823 35.0421 38.5075 35.7608C38.0326 36.4796 36.6721 38.0708 36.2483 38.5588C35.8377 39.0337 35.4141 39.0978 34.7082 38.7385C30.5241 36.6466 27.7776 35.0037 25.0181 30.2675C24.2865 29.0097 25.7498 29.0995 27.1101 26.3787C27.3413 25.9036 27.2258 25.493 27.0458 25.1336C26.8663 24.7742 25.4416 21.2703 24.8512 19.8456C24.2737 18.4595 23.6833 18.652 23.2468 18.6263C22.8362 18.6006 22.3611 18.6006 21.8865 18.6006C21.4115 18.6006 20.6415 18.7803 19.9868 19.4862C19.3323 20.205 17.4968 21.925 17.4968 25.4288C17.4968 28.9327 20.0508 32.3212 20.3975 32.796C20.7567 33.2707 25.416 40.4583 32.5647 43.5516C37.0827 45.5025 38.854 45.6691 41.113 45.3355C42.4861 45.1301 45.3228 43.6156 45.9131 41.9471C46.5035 40.2787 46.5035 38.8542 46.3237 38.559C46.157 38.2377 45.6818 38.0582 44.976 37.7115Z" fill="white"/>
</svg>
